<?xml version="1.0" encoding="utf-8"?>
<!-- Generator: Adobe Illustrator 27.5.0, SVG Export Plug-In . SVG Version: 6.00 Build 0)  -->
<svg version="1.1" id="Layer_1"
	xmlns="http://www.w3.org/2000/svg"
	xmlns:xlink="http://www.w3.org/1999/xlink" x="0px" y="0px" viewBox="0 0 347.582 238.641" style="enable-background:new 0 0 347.582 238.641;" xml:space="preserve">
	<g>
		<g>
			<g>
				<path style="fill:#757779;" d="M7.443,168.126l-1.83,13.515c0,0,0.011,37.859,0,40.849l2.435,0.291l42.318,5.037l50.976,6.069
				v-65.76H7.443z"/>
				<path style="fill:#1F2223;" d="M101.342,234.286c-0.016,0-0.032-0.001-0.048-0.003L5.566,222.887
				c-0.202-0.025-0.353-0.195-0.353-0.398c0.013-2.954,0-40.469,0-40.847l1.834-13.569c0.027-0.198,0.196-0.345,0.395-0.345h93.898
				c0.22,0,0.398,0.179,0.398,0.399v65.76c0,0.114-0.048,0.223-0.134,0.299C101.534,234.25,101.439,234.286,101.342,234.286z
				 M6.014,222.135l94.928,11.302v-64.912H7.793l-1.784,13.17C6.013,182.01,6.023,217.325,6.014,222.135z"/>
			</g>
			<g>
				<path style="fill:#5C5E60;" d="M101.342,168.126v65.76c0,0,73.825,0.523,73.834,0.775h59.806v-66.535H101.342z"/>
				<path style="fill:#1F2223;" d="M234.982,235.061h-59.806c-0.04,0-0.078-0.006-0.115-0.017
				c-1.763-0.199-48.909-0.583-73.723-0.759c-0.219-0.001-0.396-0.179-0.396-0.399v-65.76c0-0.221,0.179-0.399,0.4-0.399h133.641
				c0.221,0,0.399,0.179,0.399,0.399v66.535C235.382,234.882,235.204,235.061,234.982,235.061z M101.74,233.49
				c2.774,0.02,19.646,0.143,36.519,0.29c9.229,0.081,18.458,0.17,25.381,0.254c8.115,0.1,10.704,0.131,11.536,0.288v-0.061h59.407
				v-65.738H101.74V233.49z"/>
			</g>
			<g>
				<polygon style="fill:#2B2D2F;" points="341.969,222.49 341.758,218.192 340.939,182.527 339.906,168.126 234.982,168.126 
				234.982,234.661 264.375,231.531 341.969,223.265 341.931,222.494 			"/>
				<path style="fill:#1F2223;" d="M234.982,235.061c-0.099,0-0.193-0.036-0.267-0.103c-0.084-0.075-0.132-0.184-0.132-0.297v-66.535
				c0-0.221,0.179-0.399,0.399-0.399h104.923c0.209,0,0.383,0.162,0.398,0.371l1.033,14.401l0.82,35.685l0.211,4.288
				c0.003,0.061-0.007,0.118-0.029,0.171l0.029,0.604c0.01,0.211-0.146,0.395-0.356,0.417l-106.987,11.396
				C235.011,235.06,234.997,235.061,234.982,235.061z M235.382,168.525v65.692l106.17-11.31l-0.019-0.394
				c-0.003-0.06,0.007-0.12,0.029-0.172l-0.203-4.13l-0.819-35.676l-1.006-14.011H235.382z"/>
			</g>
			<g>
				<path style="fill:#746A6B;" d="M5.617,174.797c0.002,11.234,0.004,25.832-0.003,27.643l2.435,0.29l42.318,5.037l50.976,6.069
				v-39.039H5.617z"/>
				<path style="fill:#4C4647;" d="M101.342,174.797v39.039c0,0,73.825,0.523,73.834,0.775h59.806v-39.814H101.342z"/>
				<polygon style="fill:#363233;" points="341.758,198.141 341.222,174.797 234.982,174.797 234.982,214.611 264.375,211.479 
				341.969,203.214 341.931,202.443 341.969,202.439 			"/>
			</g>
			<g>
				<g>
					<g>
						<g>
							<path style="fill:#FFFFFF;" d="M337.958,100.143l-70.107-61.505L173.791,3.98v0.006V3.98L79.73,38.638L9.623,100.143
							L6.336,166.95c-0.451,4.84-0.704,9.738-0.723,14.691l95.729,11.397h133.641l106.986-11.397L337.958,100.143z"/>
							<path style="fill:#989B9D;" d="M234.982,193.437H101.342L5.566,182.038c-0.202-0.025-0.353-0.196-0.353-0.398
							c0.02-4.81,0.263-9.765,0.726-14.726l3.285-66.791c0.006-0.108,0.054-0.209,0.136-0.28l70.107-61.505
							c0.037-0.033,0.079-0.058,0.125-0.075l94.061-34.658c0.079-0.03,0.163-0.032,0.242-0.012c0.012,0.003,0.023,0.007,0.035,0.012
							l94.06,34.658c0.046,0.017,0.089,0.042,0.126,0.075l70.106,61.505c0.082,0.071,0.13,0.172,0.136,0.28l4.01,81.499
							c0.01,0.212-0.146,0.395-0.356,0.417l-106.987,11.397C235.011,193.436,234.997,193.437,234.982,193.437z M6.015,181.286
							l95.374,11.355l133.572-0.003l106.591-11.354l-3.984-80.954l-69.923-61.344L173.791,4.405L79.938,38.986l-69.923,61.344
							l-3.279,66.639C6.286,171.803,6.043,176.612,6.015,181.286z"/>
						</g>
						<g>
							<g>
								<polygon style="fill:#FFFFFF;" points="52.342,114.997 8.048,181.931 96.109,192.415 98.05,191.792 							"/>
								<path style="fill:#989B9D;" d="M96.109,192.813c-0.016,0-0.032,0-0.047-0.002L8.001,182.328
								c-0.138-0.017-0.257-0.102-0.315-0.229c-0.058-0.126-0.047-0.273,0.03-0.389l44.294-66.935
								c0.076-0.115,0.208-0.18,0.342-0.179c0.138,0.003,0.263,0.077,0.334,0.195l45.707,76.796
								c0.063,0.105,0.073,0.231,0.031,0.345c-0.044,0.114-0.136,0.202-0.252,0.239l-1.941,0.623
								C96.192,192.808,96.15,192.813,96.109,192.813z M8.739,181.612l87.332,10.396l1.379-0.443l-45.126-75.819L8.739,181.612z"/>
							</g>
							<g>
								<polygon style="fill:#8C98A0;" points="52.54,122.555 16.521,177.561 91.323,187.399 85.457,177.861 							"/>
								<path style="fill:#B5B7B9;" d="M91.323,187.799c-0.017,0-0.035-0.001-0.052-0.003l-74.802-9.837
								c-0.137-0.019-0.253-0.104-0.312-0.229c-0.057-0.126-0.046-0.271,0.029-0.386l36.019-55.006
								c0.076-0.115,0.212-0.182,0.343-0.181c0.137,0.004,0.264,0.077,0.334,0.195L85.8,177.657l5.862,9.534
								c0.081,0.131,0.079,0.296-0.005,0.425C91.584,187.731,91.457,187.799,91.323,187.799z M17.203,177.248l73.34,9.646
								l-5.426-8.824l-32.593-54.762L17.203,177.248z"/>
							</g>
							<g>
								<polygon style="fill:#9DA5B4;" points="52.62,126.285 18.672,178.127 89.171,187.399 83.644,178.409 							"/>
								<path style="fill:#9EA1A3;" d="M89.171,187.799c-0.017,0-0.035-0.001-0.052-0.003l-70.5-9.271
								c-0.136-0.019-0.254-0.104-0.311-0.229c-0.058-0.124-0.047-0.27,0.028-0.385l33.948-51.843
								c0.075-0.115,0.211-0.186,0.342-0.181c0.138,0.003,0.264,0.077,0.335,0.195l31.023,52.124l5.525,8.985
								c0.081,0.131,0.079,0.296-0.005,0.425C89.432,187.731,89.305,187.799,89.171,187.799z M19.354,177.814l69.038,9.08
								l-5.089-8.276l-30.7-51.579L19.354,177.814z"/>
							</g>
							<g>
								<polygon style="fill:#FFFFFF;" points="50.926,108.691 76.228,41.71 11.321,98.653 11.325,98.762 							"/>
								<path style="fill:#989B9D;" d="M50.926,109.09c-0.032,0-0.065-0.004-0.098-0.012l-39.6-9.929
								c-0.172-0.043-0.295-0.193-0.302-0.371l-0.005-0.109c-0.005-0.121,0.045-0.237,0.136-0.317L75.964,41.41
								c0.138-0.12,0.34-0.132,0.491-0.027c0.15,0.104,0.211,0.298,0.146,0.469l-25.302,66.981
								C51.239,108.99,51.088,109.09,50.926,109.09z M12.061,98.535l38.617,9.682l24.612-65.151L12.061,98.535z"/>
							</g>
							<g>
								<polygon style="fill:#8C98A0;" points="46.845,104.908 69.162,53.41 19.521,97.982 19.524,98.058 							"/>
								<path style="fill:#B5B7B9;" d="M46.845,105.307c-0.032,0-0.064-0.004-0.097-0.012l-27.321-6.851
								c-0.17-0.042-0.293-0.192-0.302-0.368c-0.005-0.12,0.04-0.311,0.129-0.391l49.642-44.573
								c0.138-0.126,0.347-0.137,0.499-0.027c0.153,0.11,0.208,0.311,0.133,0.482l-22.316,51.499
								C47.146,105.215,47.001,105.307,46.845,105.307z M20.281,97.836l26.333,6.602l21.455-49.511L20.281,97.836z"/>
							</g>
							<g>
								<polygon style="fill:#9DA5B4;" points="47.873,104.908 67.365,57.17 21.917,98.329 21.92,98.401 							"/>
								<path style="fill:#9EA1A3;" d="M47.873,105.307c-0.032,0-0.064-0.004-0.097-0.012l-25.953-6.506
								c-0.17-0.043-0.293-0.192-0.301-0.369c-0.006-0.119,0.039-0.307,0.127-0.387l45.449-41.159
								c0.138-0.126,0.343-0.137,0.497-0.031c0.153,0.107,0.211,0.306,0.14,0.479l-19.491,47.736
								C48.18,105.212,48.032,105.307,47.873,105.307z M22.677,98.179l24.957,6.257l18.697-45.791L22.677,98.179z"/>
							</g>
							<g>
								<polygon style="fill:#FFFFFF;" points="104.105,193.038 234.178,193.038 177.065,98.184 							"/>
								<path style="fill:#989B9D;" d="M234.178,193.437H104.105c-0.152,0-0.291-0.087-0.358-0.223
								c-0.067-0.137-0.051-0.3,0.042-0.42l72.959-94.854c0.081-0.104,0.208-0.157,0.34-0.155c0.132,0.008,0.251,0.08,0.319,0.193
								l57.112,94.853c0.074,0.123,0.077,0.277,0.005,0.402C234.455,193.359,234.321,193.437,234.178,193.437z M104.916,192.638
								h128.555l-56.446-93.747L104.916,192.638z"/>
							</g>
							<g>
								<polygon style="fill:#9DA5B4;" points="114.91,189.98 223.374,189.98 175.749,110.885 							"/>
								<path style="fill:#707375;" d="M223.374,190.38H114.91c-0.152,0-0.29-0.086-0.358-0.223
								c-0.067-0.136-0.051-0.299,0.042-0.419l60.839-79.096c0.08-0.105,0.208-0.162,0.338-0.155
								c0.132,0.006,0.252,0.079,0.32,0.192l47.625,79.096c0.074,0.123,0.077,0.277,0.005,0.402
								C223.65,190.302,223.517,190.38,223.374,190.38z M115.721,189.581h106.946l-46.959-77.989L115.721,189.581z"/>
							</g>
							<g>
								<polygon style="fill:#FFFFFF;" points="341.758,177.343 338.047,101.928 298.535,111.863 							"/>
								<path style="fill:#989B9D;" d="M341.758,177.743c-0.132,0-0.258-0.066-0.334-0.18l-43.223-65.48
								c-0.071-0.108-0.086-0.244-0.039-0.365c0.047-0.121,0.149-0.211,0.275-0.243l39.512-9.935
								c0.117-0.03,0.239-0.005,0.335,0.066c0.096,0.071,0.155,0.182,0.161,0.301l3.71,75.415c0.009,0.18-0.103,0.343-0.274,0.398
								C341.84,177.736,341.799,177.743,341.758,177.743z M299.178,112.113l42.109,63.793l-3.616-73.471L299.178,112.113z"/>
							</g>
							<g>
								<polygon style="fill:#4B5159;" points="338.544,165.351 335.66,106.723 304.944,114.446 							"/>
								<path style="fill:#707375;" d="M338.544,165.749c-0.131,0-0.257-0.065-0.334-0.179l-33.6-50.904
								c-0.071-0.107-0.086-0.243-0.04-0.364c0.047-0.121,0.15-0.211,0.275-0.242l30.715-7.724c0.116-0.03,0.239-0.005,0.335,0.066
								c0.096,0.072,0.155,0.182,0.161,0.301l2.885,58.627c0.008,0.18-0.103,0.343-0.275,0.398
								C338.628,165.744,338.586,165.749,338.544,165.749z M305.587,114.696l32.486,49.216l-2.789-56.683L305.587,114.696z"/>
							</g>
							<g>
								<polygon style="fill:#616771;" points="337.039,163.068 332.661,108.195 305.039,115.14 							"/>
								<path style="fill:#707375;" d="M337.039,163.468c-0.131,0-0.257-0.064-0.333-0.178l-31.999-47.928
								c-0.073-0.107-0.087-0.244-0.041-0.365c0.046-0.122,0.149-0.212,0.275-0.244l27.622-6.945
								c0.115-0.028,0.234-0.004,0.33,0.063c0.096,0.068,0.156,0.175,0.166,0.293l4.377,54.873c0.015,0.181-0.096,0.349-0.267,0.409
								C337.126,163.46,337.082,163.468,337.039,163.468z M305.685,115.389l30.833,46.182l-4.218-52.873L305.685,115.389z"/>
							</g>
							<g>
								<polygon style="fill:#FFFFFF;" points="336.357,98.738 271.534,41.868 296.776,108.69 							"/>
								<path style="fill:#989B9D;" d="M296.776,109.089c-0.163,0-0.314-0.1-0.374-0.258L271.16,42.009
								c-0.065-0.171-0.004-0.365,0.146-0.47c0.151-0.104,0.354-0.092,0.491,0.028l64.823,56.87c0.112,0.098,0.16,0.249,0.125,0.393
								c-0.035,0.145-0.146,0.258-0.29,0.294l-39.581,9.953C296.841,109.085,296.809,109.089,296.776,109.089z M272.472,43.223
								l24.551,64.993l38.499-9.679L272.472,43.223z"/>
							</g>
							<g>
								<polygon style="fill:#4B5159;" points="328.308,97.114 279.786,54.654 299.758,103.29 							"/>
								<path style="fill:#707375;" d="M299.758,103.69c-0.159,0-0.307-0.096-0.37-0.248l-19.972-48.637
								c-0.07-0.171-0.013-0.368,0.137-0.476c0.15-0.108,0.355-0.099,0.495,0.023l48.522,42.46c0.114,0.098,0.162,0.254,0.123,0.399
								c-0.037,0.147-0.154,0.259-0.302,0.291l-28.55,6.178C299.813,103.687,299.786,103.69,299.758,103.69z M280.799,56.071
								L300,102.83l27.447-5.939L280.799,56.071z"/>
							</g>
							<g>
								<polygon style="fill:#808794;" points="326.279,97.552 281.709,58.284 299.758,103.29 							"/>
								<path style="fill:#707375;" d="M299.758,103.69c-0.161,0-0.309-0.097-0.371-0.251l-18.048-45.006
								c-0.069-0.171-0.012-0.368,0.139-0.475c0.151-0.107,0.356-0.096,0.495,0.026l44.57,39.268c0.113,0.1,0.16,0.254,0.123,0.4
								c-0.038,0.146-0.156,0.257-0.302,0.29l-26.522,5.739C299.813,103.687,299.786,103.69,299.758,103.69z M282.704,59.694
								l17.298,43.136l25.42-5.5L282.704,59.694z"/>
							</g>
							<g>
								<polygon style="fill:#ADAFB2;" points="174.103,8.165 174.102,8.171 174.102,8.165 106.843,32.948 241.362,32.948 							"/>
								<path style="fill:#989B9D;" d="M241.362,33.347h-134.52c-0.193,0-0.358-0.139-0.392-0.329
								c-0.034-0.19,0.073-0.378,0.255-0.445L173.964,7.79c0.078-0.029,0.161-0.032,0.239-0.012
								c0.013,0.003,0.025,0.008,0.038,0.012L241.5,32.573c0.182,0.067,0.288,0.255,0.255,0.445
								C241.721,33.208,241.556,33.347,241.362,33.347z M109.082,32.548h130.042L174.102,8.59L109.082,32.548z"/>
							</g>
							<g>
								<polygon style="fill:#9DA5B4;" points="174.103,10.58 174.102,10.585 174.102,10.58 113.4,32.948 234.805,32.948 							"/>
								<path style="fill:#797C7E;" d="M234.805,33.347H113.4c-0.193,0-0.358-0.139-0.393-0.329c-0.034-0.19,0.073-0.378,0.255-0.445
								l60.701-22.367c0.077-0.028,0.159-0.031,0.236-0.012c0.014,0.004,0.027,0.008,0.041,0.012l60.702,22.367
								c0.182,0.067,0.289,0.255,0.255,0.445C235.164,33.208,234.998,33.347,234.805,33.347z M115.639,32.548h116.927
								l-58.463-21.542L115.639,32.548z"/>
							</g>
							<g>
								<polygon style="fill:#FFFFFF;" points="239.984,192.253 240.388,192.462 339.517,181.902 295.192,114.752 							"/>
								<path style="fill:#989B9D;" d="M240.388,192.862c-0.064,0-0.127-0.016-0.185-0.045l-0.403-0.209
								c-0.103-0.053-0.177-0.148-0.204-0.261c-0.028-0.112-0.004-0.231,0.063-0.325l55.207-77.502
								c0.077-0.107,0.194-0.167,0.333-0.167c0.132,0.002,0.254,0.069,0.326,0.179l44.324,67.15
								c0.077,0.116,0.087,0.264,0.028,0.391c-0.059,0.126-0.181,0.211-0.319,0.227l-99.128,10.561
								C240.417,192.861,240.402,192.862,240.388,192.862z M295.18,115.457l-54.55,76.578l98.193-10.46L295.18,115.457z"/>
							</g>
							<g>
								<polygon style="fill:#4B5159;" points="249.873,187.458 250.206,187.63 332.015,178.915 295.435,123.497 							"/>
								<path style="fill:#707375;" d="M250.206,188.029c-0.064,0-0.127-0.016-0.185-0.045l-0.333-0.172
								c-0.103-0.053-0.177-0.148-0.204-0.261c-0.027-0.113-0.004-0.232,0.063-0.326l45.562-63.961
								c0.077-0.107,0.193-0.174,0.332-0.167c0.132,0.002,0.254,0.069,0.327,0.18l36.58,55.417c0.077,0.116,0.087,0.265,0.027,0.391
								c-0.059,0.125-0.18,0.211-0.319,0.226l-81.809,8.715C250.234,188.028,250.22,188.029,250.206,188.029z M295.422,124.203
								l-44.87,62.989l80.768-8.604L295.422,124.203z"/>
							</g>
							<g>
								<polygon style="fill:#616771;" points="249.873,187.464 250.194,187.63 329.202,179.213 293.875,125.693 							"/>
								<path style="fill:#707375;" d="M250.194,188.029c-0.064,0-0.127-0.016-0.184-0.044l-0.321-0.166
								c-0.103-0.053-0.177-0.148-0.205-0.26c-0.027-0.113-0.004-0.231,0.063-0.326l44.003-61.771
								c0.076-0.108,0.198-0.18,0.331-0.167c0.132,0.002,0.254,0.068,0.327,0.179l35.327,53.52c0.076,0.116,0.087,0.264,0.027,0.39
								c-0.06,0.126-0.18,0.212-0.319,0.227l-79.007,8.416C250.223,188.028,250.208,188.029,250.194,188.029z M293.862,126.399
								l-43.303,60.792l77.948-8.305L293.862,126.399z"/>
							</g>
							<g>
								<path style="fill:#FFFFFF;" d="M9.536,101.928l-3.2,65.021c-0.326,3.507-0.545,7.045-0.65,10.612l43.476-65.698
								L9.536,101.928z"/>
								<path style="fill:#989B9D;" d="M5.686,177.961c-0.04,0-0.081-0.006-0.122-0.018c-0.169-0.054-0.283-0.213-0.278-0.392
								c0.104-3.531,0.324-7.111,0.652-10.637l3.198-65.005c0.006-0.119,0.065-0.23,0.161-0.301
								c0.096-0.071,0.218-0.096,0.335-0.066l39.626,9.936c0.125,0.032,0.228,0.122,0.275,0.243c0.047,0.12,0.032,0.256-0.038,0.364
								L6.018,177.782C5.943,177.895,5.817,177.961,5.686,177.961z M9.911,102.434l-3.175,64.536
								c-0.284,3.057-0.486,6.139-0.602,9.193l42.386-64.049L9.911,102.434z"/>
							</g>
							<g>
								<path style="fill:#8C98A0;" d="M14.903,106.723c0,0-4.595,57.259-4.669,59.756l32.407-52.801L14.903,106.723z"/>
								<path style="fill:#B5B7B9;" d="M10.233,166.879c-0.038,0-0.076-0.005-0.114-0.017c-0.173-0.052-0.291-0.213-0.286-0.394
								c0.073-2.48,4.482-57.438,4.67-59.776c0.009-0.118,0.07-0.224,0.165-0.293c0.095-0.068,0.217-0.091,0.33-0.063l27.738,6.955
								c0.123,0.031,0.224,0.119,0.271,0.236c0.048,0.118,0.037,0.252-0.029,0.36l-32.407,52.801
								C10.5,166.809,10.37,166.879,10.233,166.879z M15.263,107.225c-0.403,5.033-3.891,48.563-4.53,57.678l31.282-50.97
								L15.263,107.225z"/>
							</g>
							<g>
								<path style="fill:#9DA5B4;" d="M17.234,108.195c0,0-4.06,50.587-4.125,52.793l28.63-46.649L17.234,108.195z"/>
								<path style="fill:#9EA1A3;" d="M13.109,161.387c-0.038,0-0.077-0.006-0.114-0.017c-0.173-0.052-0.29-0.213-0.285-0.394
								c0.064-2.191,3.961-50.748,4.125-52.813c0.01-0.118,0.07-0.224,0.166-0.293c0.096-0.068,0.216-0.091,0.33-0.063l24.505,6.145
								c0.124,0.031,0.225,0.119,0.272,0.236c0.048,0.118,0.037,0.251-0.029,0.36l-28.63,46.649
								C13.375,161.317,13.245,161.387,13.109,161.387z M17.594,108.697c-0.374,4.663-3.389,42.302-3.985,50.712l27.505-44.815
								L17.594,108.697z"/>
							</g>
							<g>
								<polygon style="fill:#FFFFFF;" points="87.99,40.828 177.246,91.758 260.215,40.828 							"/>
								<path style="fill:#989B9D;" d="M177.246,92.158c-0.068,0-0.137-0.018-0.198-0.053l-89.255-50.93
								c-0.157-0.089-0.234-0.274-0.188-0.449c0.046-0.175,0.206-0.296,0.386-0.296h172.225c0.179,0,0.336,0.119,0.384,0.291
								c0.049,0.171-0.023,0.355-0.175,0.449l-82.969,50.929C177.391,92.138,177.317,92.158,177.246,92.158z M89.495,41.228
								l87.743,50.066l81.563-50.066H89.495z"/>
							</g>
							<g>
								<polygon style="fill:#8C98A0;" points="102.618,45.153 176.711,87.432 245.587,45.153 							"/>
								<path style="fill:#B5B7B9;" d="M176.711,87.831c-0.068,0-0.137-0.016-0.198-0.052l-74.094-42.277
								c-0.157-0.091-0.234-0.275-0.188-0.45c0.046-0.174,0.205-0.296,0.386-0.296h142.969c0.179,0,0.336,0.119,0.384,0.291
								c0.049,0.171-0.023,0.355-0.175,0.449l-68.875,42.278C176.856,87.812,176.784,87.831,176.711,87.831z M104.123,45.553
								l72.58,41.414l67.47-41.414H104.123z"/>
							</g>
							<g>
								<polygon style="fill:#AEBCC6;" points="107.354,47.954 176.539,87.432 240.852,47.954 							"/>
								<path style="fill:#B5B7B9;" d="M176.539,87.831c-0.069,0-0.137-0.016-0.199-0.052l-69.186-39.477
								c-0.157-0.09-0.234-0.273-0.188-0.449c0.047-0.175,0.206-0.297,0.387-0.297h133.498c0.179,0,0.336,0.119,0.385,0.291
								c0.048,0.172-0.023,0.355-0.175,0.449l-64.314,39.478C176.684,87.812,176.611,87.831,176.539,87.831z M108.859,48.354
								l67.671,38.613l62.908-38.613H108.859z"/>
							</g>
							<g>
								<polygon style="fill:#FFFFFF;" points="236.889,189.045 291.384,112.546 181.535,97.114 							"/>
								<path style="fill:#989B9D;" d="M236.889,189.445c-0.005,0-0.01,0-0.015-0.001c-0.134-0.004-0.257-0.077-0.327-0.192
								l-55.355-91.932c-0.079-0.132-0.076-0.297,0.009-0.426c0.085-0.128,0.238-0.197,0.389-0.175l109.849,15.433
								c0.138,0.019,0.256,0.109,0.311,0.238c0.056,0.128,0.04,0.276-0.042,0.39l-54.494,76.499
								C237.139,189.382,237.018,189.445,236.889,189.445z M182.309,97.625l54.608,90.693l53.76-75.468L182.309,97.625z"/>
							</g>
							<g>
								<polygon style="fill:#4B5159;" points="237.494,181.091 284.275,115.42 189.975,102.171 							"/>
								<path style="fill:#707375;" d="M237.494,181.49c-0.005,0-0.01,0-0.015-0.001c-0.135-0.004-0.257-0.077-0.327-0.192
								l-47.52-78.92c-0.079-0.131-0.076-0.297,0.009-0.426c0.084-0.128,0.238-0.197,0.388-0.175l94.3,13.249
								c0.138,0.019,0.257,0.11,0.312,0.237c0.055,0.128,0.039,0.276-0.042,0.39l-46.781,65.671
								C237.744,181.427,237.624,181.49,237.494,181.49z M190.749,102.683l46.773,77.68l46.046-64.64L190.749,102.683z"/>
							</g>
							<g>
								<polygon style="fill:#808794;" points="237.485,180.085 280.791,117.466 191.177,103.178 							"/>
								<path style="fill:#707375;" d="M237.485,180.484c-0.004,0-0.008,0-0.013,0c-0.135-0.003-0.259-0.077-0.33-0.193
								l-46.308-76.906c-0.081-0.133-0.076-0.3,0.011-0.43c0.086-0.128,0.241-0.197,0.394-0.17l89.613,14.288
								c0.136,0.021,0.251,0.111,0.305,0.237c0.054,0.126,0.039,0.271-0.039,0.383l-43.306,62.619
								C237.739,180.419,237.616,180.484,237.485,180.484z M191.962,103.707l45.546,75.642l42.594-61.588L191.962,103.707z"/>
							</g>
							<g>
								<polygon style="fill:#FFFFFF;" points="183.627,92.983 291.905,108.195 266.859,41.892 							"/>
								<path style="fill:#989B9D;" d="M291.905,108.595c-0.018,0-0.037-0.001-0.056-0.004L183.571,93.378
								c-0.167-0.023-0.301-0.148-0.336-0.314c-0.034-0.165,0.039-0.334,0.183-0.422l83.232-51.092
								c0.102-0.063,0.226-0.076,0.338-0.037c0.112,0.038,0.203,0.125,0.245,0.237l25.046,66.303c0.05,0.131,0.026,0.28-0.062,0.391
								C292.141,108.54,292.026,108.595,291.905,108.595z M184.783,92.742l106.51,14.964l-24.637-65.221L184.783,92.742z"/>
							</g>
							<g>
								<polygon style="fill:#4B5159;" points="194.213,91.758 286.476,103.29 265.573,47.954 							"/>
								<path style="fill:#707375;" d="M286.476,103.69c-0.017,0-0.033-0.001-0.049-0.003l-92.264-11.533
								c-0.168-0.021-0.304-0.146-0.34-0.312c-0.036-0.166,0.037-0.336,0.181-0.425l71.36-43.803
								c0.102-0.064,0.226-0.077,0.338-0.038c0.113,0.039,0.203,0.126,0.245,0.237l20.903,55.336
								c0.049,0.131,0.027,0.279-0.06,0.388C286.714,103.635,286.598,103.69,286.476,103.69z M195.392,91.503l90.476,11.31
								L265.37,48.547L195.392,91.503z"/>
							</g>
							<g>
								<polygon style="fill:#808794;" points="194.213,92.043 283.386,102.581 263.809,49.323 							"/>
								<path style="fill:#707375;" d="M283.386,102.98c-0.016,0-0.031-0.001-0.047-0.003L194.167,92.44
								c-0.17-0.02-0.307-0.144-0.343-0.311c-0.038-0.165,0.036-0.337,0.18-0.426l69.596-42.721c0.102-0.062,0.226-0.076,0.34-0.036
								c0.113,0.039,0.203,0.127,0.244,0.239l19.579,53.258c0.047,0.13,0.025,0.276-0.061,0.385
								C283.624,102.925,283.507,102.98,283.386,102.98z M195.402,91.781l87.385,10.326l-19.186-52.189L195.402,91.781z"/>
							</g>
							<g>
								<polygon style="fill:#FFFFFF;" points="101.573,189.143 172.314,97.174 56.022,112.613 							"/>
								<path style="fill:#989B9D;" d="M101.573,189.542c-0.008,0-0.016,0-0.024-0.001c-0.132-0.008-0.251-0.081-0.319-0.194
								l-45.55-76.531c-0.068-0.115-0.075-0.257-0.016-0.378c0.058-0.121,0.174-0.204,0.307-0.222l116.292-15.439
								c0.162-0.023,0.317,0.057,0.398,0.196c0.08,0.14,0.069,0.315-0.029,0.443l-70.742,91.969
								C101.813,189.484,101.696,189.542,101.573,189.542z M56.676,112.929l44.939,75.504l69.794-90.736L56.676,112.929z"/>
							</g>
							<g>
								<polygon style="fill:#8C98A0;" points="102.618,181.343 162.665,103.29 64.579,117.174 							"/>
								<path style="fill:#B5B7B9;" d="M102.618,181.742c-0.008,0-0.016,0-0.024-0.001c-0.132-0.008-0.252-0.081-0.319-0.195
								l-38.039-64.17c-0.068-0.115-0.074-0.256-0.017-0.376c0.058-0.12,0.172-0.204,0.304-0.223l98.086-13.883
								c0.164-0.023,0.318,0.056,0.4,0.195c0.081,0.141,0.07,0.316-0.028,0.444l-60.047,78.052
								C102.858,181.684,102.742,181.742,102.618,181.742z M65.228,117.485l37.433,63.147l59.09-76.809L65.228,117.485z"/>
							</g>
							<g>
								<polygon style="fill:#AEBCC6;" points="103.093,181.343 160.549,106.658 66.695,119.942 							"/>
								<path style="fill:#B5B7B9;" d="M103.093,181.742c-0.009,0-0.016,0-0.024-0.001c-0.132-0.008-0.252-0.081-0.319-0.195
								l-36.398-61.401c-0.068-0.115-0.074-0.256-0.017-0.377c0.058-0.121,0.172-0.204,0.305-0.223l93.854-13.284
								c0.168-0.022,0.32,0.055,0.401,0.194c0.081,0.141,0.07,0.316-0.028,0.444l-57.457,74.685
								C103.333,181.684,103.216,181.742,103.093,181.742z M67.343,120.253l35.792,60.379l56.5-73.442L67.343,120.253z"/>
							</g>
							<g>
								<polygon style="fill:#FFFFFF;" points="80.872,41.812 55.785,108.224 170.557,92.987 							"/>
								<path style="fill:#989B9D;" d="M55.785,108.623c-0.121,0-0.236-0.055-0.313-0.151c-0.087-0.111-0.11-0.258-0.06-0.389
								l25.087-66.412c0.041-0.11,0.128-0.196,0.238-0.235c0.11-0.041,0.231-0.029,0.334,0.029l89.684,51.176
								c0.149,0.084,0.227,0.255,0.193,0.423c-0.032,0.168-0.169,0.295-0.339,0.318L55.838,108.62
								C55.82,108.622,55.803,108.623,55.785,108.623z M81.081,42.39l-24.686,65.35l112.935-14.993L81.081,42.39z"/>
							</g>
							<g>
								<polygon style="fill:#AEBCC6;" points="83.032,46.755 61.483,103.802 160.068,90.714 							"/>
								<path style="fill:#B5B7B9;" d="M61.483,104.201c-0.121,0-0.237-0.055-0.313-0.151c-0.087-0.11-0.11-0.258-0.061-0.39
								l21.55-57.047c0.041-0.109,0.128-0.194,0.238-0.234c0.109-0.041,0.231-0.029,0.333,0.029l77.036,43.957
								c0.149,0.085,0.227,0.256,0.194,0.424c-0.033,0.168-0.169,0.295-0.338,0.319l-98.586,13.087
								C61.518,104.2,61.5,104.201,61.483,104.201z M83.24,47.334l-21.148,55.985l96.75-12.845L83.24,47.334z"/>
							</g>
							<g>
								<polygon style="fill:#8C98A0;" points="83.032,46.755 61.483,103.802 160.068,90.714 							"/>
								<path style="fill:#B5B7B9;" d="M61.483,104.201c-0.121,0-0.237-0.055-0.313-0.151c-0.087-0.11-0.11-0.258-0.061-0.39
								l21.55-57.047c0.041-0.109,0.128-0.194,0.238-0.234c0.109-0.041,0.231-0.029,0.333,0.029l77.036,43.957
								c0.149,0.085,0.227,0.256,0.194,0.424c-0.033,0.168-0.169,0.295-0.338,0.319l-98.586,13.087
								C61.518,104.2,61.5,104.201,61.483,104.201z M83.24,47.334l-21.148,55.985l96.75-12.845L83.24,47.334z"/>
							</g>
							<g>
								<polygon style="fill:#AEBCC6;" points="84.394,49.556 63.902,103.802 157.648,91.356 							"/>
								<path style="fill:#B5B7B9;" d="M63.902,104.201c-0.121,0-0.236-0.055-0.313-0.151c-0.088-0.11-0.111-0.258-0.061-0.39
								L84.02,49.415c0.042-0.109,0.129-0.195,0.238-0.234c0.111-0.041,0.232-0.03,0.333,0.028l73.254,41.8
								c0.149,0.084,0.227,0.255,0.194,0.424c-0.032,0.169-0.169,0.296-0.339,0.319l-93.746,12.445
								C63.938,104.2,63.92,104.201,63.902,104.201z M84.602,50.135l-20.09,53.183l91.91-12.201L84.602,50.135z"/>
							</g>
							<g>
								<path style="fill:#D8D9DA;" d="M341.758,177.343l-43.223-65.48l39.512-9.935l-0.088-1.785l-1.601-1.405l-39.581,9.952
								l-25.243-66.822l-3.682-3.23l-5.946-2.191H85.676l-5.945,2.191l-3.503,3.072l-25.302,66.981l-39.601-9.929l-0.004-0.109
								l-1.698,1.49l-0.087,1.785l39.626,9.935L5.686,177.561c-0.04,1.355-0.068,2.715-0.073,4.08l2.435,0.29l44.294-66.934
								l45.708,76.795l-1.94,0.623l5.232,0.624h2.764l72.959-94.854l57.113,94.854h0.805l5.406-0.576l-0.404-0.208l55.208-77.502
								l44.325,67.15l2.452-0.261L341.758,177.343z M80.872,41.812l89.685,51.175L55.785,108.224L80.872,41.812z M101.573,189.143
								l-45.55-76.53l116.292-15.438L101.573,189.143z M87.99,40.828h172.225l-82.969,50.93L87.99,40.828z M236.889,189.045
								l-55.354-91.932l109.849,15.432L236.889,189.045z M183.627,92.983l83.232-51.092l25.046,66.303L183.627,92.983z"/>
								<path style="fill:#BCBEC0;" d="M234.982,193.437h-0.805c-0.14,0-0.27-0.073-0.342-0.193l-56.811-94.352l-72.604,94.389
								c-0.076,0.099-0.192,0.156-0.316,0.156h-2.764l-5.28-0.626c-0.186-0.022-0.332-0.171-0.35-0.359
								c-0.018-0.187,0.097-0.361,0.275-0.418l1.463-0.469l-45.126-75.819L8.381,182.152c-0.083,0.125-0.233,0.193-0.38,0.176
								l-2.435-0.29c-0.202-0.025-0.353-0.196-0.353-0.398c0.005-1.367,0.033-2.73,0.073-4.089c0.002-0.074,0.025-0.147,0.066-0.208
								l43.166-65.229l-39.079-9.799c-0.185-0.046-0.311-0.216-0.302-0.406l0.087-1.785c0.006-0.108,0.054-0.209,0.136-0.28
								l1.697-1.49c0.115-0.102,0.279-0.128,0.42-0.067c0.073,0.032,0.134,0.083,0.177,0.148l39.024,9.784l25.176-66.648
								c0.023-0.061,0.062-0.116,0.11-0.159l3.502-3.072c0.037-0.033,0.079-0.058,0.125-0.075l5.946-2.19
								c0.044-0.017,0.09-0.024,0.138-0.024h176.23c0.047,0,0.094,0.007,0.138,0.024l5.945,2.19
								c0.046,0.017,0.089,0.042,0.126,0.075l3.682,3.23c0.049,0.043,0.087,0.098,0.111,0.159l25.116,66.489l39.236-9.865
								c0.128-0.033,0.262,0.001,0.36,0.087l1.602,1.405c0.082,0.071,0.13,0.172,0.136,0.28l0.088,1.785
								c0.009,0.19-0.118,0.36-0.302,0.406l-38.965,9.798l42.913,65.011c0.038,0.059,0.062,0.129,0.064,0.2l0.212,4.298
								c0.01,0.212-0.146,0.395-0.356,0.417l-2.453,0.261c-0.146,0.014-0.293-0.053-0.375-0.177l-44.003-66.665l-54.604,76.653
								c0.153,0.083,0.236,0.254,0.204,0.426c-0.033,0.174-0.175,0.304-0.35,0.324l-5.406,0.576
								C235.011,193.436,234.997,193.437,234.982,193.437z M97.978,192.235l3.411,0.407l2.52-0.003l72.84-94.698
								c0.081-0.104,0.208-0.164,0.34-0.155c0.132,0.008,0.251,0.08,0.319,0.193l56.997,94.66h0.557l4.639-0.495
								c0.013-0.043,0.032-0.083,0.06-0.122l55.207-77.502c0.077-0.107,0.194-0.167,0.333-0.167
								c0.132,0.002,0.254,0.069,0.326,0.179l44.19,66.948l1.836-0.195l-0.188-3.812l-43.163-65.389
								c-0.071-0.108-0.086-0.244-0.039-0.365c0.047-0.121,0.149-0.211,0.275-0.243l39.194-9.855l-0.063-1.29l-1.316-1.155
								l-39.378,9.902c-0.201,0.048-0.4-0.057-0.471-0.246l-25.207-66.729l-3.551-3.116l-5.809-2.14H85.747l-5.81,2.14l-3.371,2.958
								l-25.267,66.887c-0.071,0.189-0.273,0.296-0.471,0.246L11.33,99.175l-1.316,1.156l-0.064,1.29l39.309,9.856
								c0.125,0.032,0.228,0.122,0.275,0.243c0.047,0.12,0.032,0.256-0.038,0.364L6.082,177.687
								c-0.034,1.196-0.06,2.397-0.066,3.599l1.835,0.22l44.159-66.73c0.076-0.115,0.208-0.18,0.342-0.179
								c0.138,0.003,0.263,0.077,0.334,0.195l45.707,76.796c0.063,0.105,0.073,0.231,0.031,0.345
								c-0.044,0.114-0.136,0.202-0.252,0.239L97.978,192.235z M101.573,189.542c-0.008,0-0.016,0-0.024-0.001
								c-0.132-0.008-0.251-0.081-0.319-0.194l-45.55-76.531c-0.068-0.115-0.075-0.257-0.016-0.378
								c0.058-0.121,0.174-0.204,0.307-0.222l116.292-15.439c0.162-0.023,0.317,0.057,0.398,0.196
								c0.08,0.14,0.069,0.315-0.029,0.443l-70.742,91.969C101.813,189.484,101.696,189.542,101.573,189.542z M56.676,112.929
								l44.939,75.504l69.794-90.736L56.676,112.929z M236.889,189.445c-0.005,0-0.01,0-0.015-0.001
								c-0.134-0.004-0.257-0.077-0.327-0.192l-55.355-91.932c-0.079-0.132-0.076-0.297,0.009-0.426
								c0.085-0.128,0.234-0.197,0.389-0.175l109.849,15.433c0.138,0.019,0.256,0.109,0.311,0.238
								c0.056,0.128,0.04,0.276-0.042,0.39l-54.494,76.499C237.139,189.383,237.018,189.445,236.889,189.445z M182.309,97.625
								l54.608,90.693l53.759-75.468L182.309,97.625z M55.785,108.623c-0.121,0-0.236-0.055-0.313-0.151
								c-0.087-0.111-0.11-0.258-0.06-0.389l25.087-66.412c0.041-0.11,0.128-0.196,0.238-0.235c0.11-0.041,0.231-0.029,0.334,0.029
								l89.683,51.176c0.15,0.084,0.227,0.255,0.194,0.423c-0.033,0.168-0.169,0.295-0.339,0.318L55.838,108.62
								C55.82,108.622,55.803,108.623,55.785,108.623z M81.081,42.39l-24.686,65.351l112.935-14.993L81.081,42.39z M291.905,108.595
								c-0.018,0-0.037-0.001-0.056-0.004L183.571,93.378c-0.167-0.023-0.301-0.148-0.336-0.314
								c-0.034-0.165,0.039-0.334,0.183-0.422l83.232-51.092c0.102-0.063,0.226-0.076,0.338-0.037
								c0.112,0.038,0.203,0.125,0.245,0.237l25.046,66.303c0.05,0.131,0.026,0.28-0.062,0.391
								C292.141,108.54,292.026,108.595,291.905,108.595z M184.783,92.742l106.511,14.964l-24.637-65.221L184.783,92.742z
								 M177.246,92.158c-0.068,0-0.137-0.018-0.198-0.053l-89.255-50.93c-0.157-0.089-0.234-0.274-0.188-0.449
								c0.046-0.175,0.205-0.296,0.386-0.296h172.225c0.179,0,0.336,0.119,0.384,0.291c0.049,0.171-0.023,0.355-0.175,0.449
								l-82.969,50.929C177.391,92.138,177.317,92.158,177.246,92.158z M89.495,41.228l87.743,50.066l81.563-50.066H89.495z"/>
							</g>
						</g>
					</g>
					<g>
						<path style="fill:#BCBEC0;" d="M173.79,4.382c-0.177,0-0.335-0.114-0.383-0.288l-0.002-0.008
						c-0.055-0.197,0.048-0.402,0.237-0.479c0.123-0.048,0.264-0.033,0.373,0.041c0.109,0.075,0.176,0.198,0.176,0.331
						c0,0.199-0.147,0.372-0.345,0.399C173.826,4.381,173.808,4.382,173.79,4.382z"/>
					</g>
					<path style="fill:#BCBEC0;" d="M173.79,4.382c-0.177,0-0.335-0.114-0.383-0.288l-0.002-0.008
					c-0.055-0.197,0.048-0.402,0.237-0.479c0.123-0.048,0.264-0.033,0.373,0.041c0.109,0.075,0.176,0.198,0.176,0.331
					c0,0.199-0.147,0.372-0.345,0.399C173.826,4.381,173.808,4.382,173.79,4.382z"/>
				</g>
				<g>
					<path style="opacity:0.5;fill:#808794;" d="M341.758,177.343l-2.098-42.639l-1.701-34.561l-70.107-61.505L173.791,3.98v0.006
					l27.339,28.508l-24.418,54.938c0,0-2.575,77.418-1.535,105.606h59.002h0.805l5.406-0.576l23.987-2.556l77.594-8.265
					L341.758,177.343z"/>
					<g style="opacity:0.5;">
						<polygon style="fill:#808794;" points="341.758,177.343 339.66,134.704 337.958,100.143 267.852,38.638 291.905,108.195 
						196.339,95.693 291.384,112.546 239.172,192.591 240.388,192.462 264.375,189.906 341.969,181.641 					"/>
					</g>
				</g>
				<g style="opacity:0.5;">
					<polygon style="fill:#9DA5B4;" points="47.873,104.908 67.365,57.17 21.917,98.329 21.92,98.401 				"/>
					<polygon style="fill:#9DA5B4;" points="174.103,10.58 174.102,10.585 174.102,10.58 113.4,32.948 234.805,32.948 				"/>
					<path style="fill:#9DA5B4;" d="M18.213,135.292c3.753-4.559,7.388-9.189,11.426-13.508c2.699-2.888,5.509-5.679,8.41-8.37
					l-20.815-5.219c0,0-1.339,16.686-2.491,31.309C15.899,138.1,17.057,136.697,18.213,135.292z"/>
					<path style="fill:#AEBCC6;" d="M193.12,60.646c8.198,0.206,16.38,0.743,24.537,1.547l23.195-14.239H107.354l30.602,17.462
					C156.08,61.731,174.6,60.176,193.12,60.646z"/>
					<path style="fill:#AEBCC6;" d="M119.929,69.833L84.394,49.556l-15.816,41.87C84.726,82.215,102.199,74.934,119.929,69.833z"/>
				</g>
			</g>
		</g>
		<g>
			<g>
				<g>
					<path style="fill:#8A8C8E;" d="M134.238,224.931c0,0.475-0.385,0.859-0.86,0.859h-17.917c-0.475,0-0.859-0.384-0.859-0.859l0,0
					c0-0.475,0.385-0.859,0.859-0.859h17.917C133.852,224.072,134.238,224.456,134.238,224.931L134.238,224.931z"/>
					<g>
						<path style="fill:#47494B;" d="M115.461,225.306h17.917c0.39,0,0.716-0.261,0.821-0.617c-0.105-0.355-0.431-0.617-0.821-0.617
						h-17.917c-0.39,0-0.715,0.261-0.821,0.617C114.746,225.044,115.071,225.306,115.461,225.306z"/>
					</g>
				</g>
				<g>
					<path style="fill:#8A8C8E;" d="M134.238,227.752c0,0.475-0.385,0.859-0.86,0.859h-17.917c-0.475,0-0.859-0.384-0.859-0.859l0,0
					c0-0.475,0.385-0.86,0.859-0.86h17.917C133.852,226.892,134.238,227.277,134.238,227.752L134.238,227.752z"/>
					<g>
						<path style="fill:#47494B;" d="M115.461,228.126h17.917c0.39,0,0.716-0.261,0.821-0.617c-0.105-0.355-0.431-0.617-0.821-0.617
						h-17.917c-0.39,0-0.715,0.262-0.821,0.617C114.746,227.865,115.071,228.126,115.461,228.126z"/>
					</g>
				</g>
				<g>
					<path style="fill:#8A8C8E;" d="M134.238,219.289c0,0.475-0.385,0.86-0.86,0.86h-17.917c-0.475,0-0.859-0.385-0.859-0.86l0,0
					c0-0.475,0.385-0.859,0.859-0.859h17.917C133.852,218.43,134.238,218.813,134.238,219.289L134.238,219.289z"/>
					<g>
						<path style="fill:#47494B;" d="M115.461,219.663h17.917c0.39,0,0.716-0.261,0.821-0.617c-0.105-0.355-0.431-0.616-0.821-0.616
						h-17.917c-0.39,0-0.715,0.261-0.821,0.616C114.746,219.401,115.071,219.663,115.461,219.663z"/>
					</g>
				</g>
				<g>
					<path style="fill:#8A8C8E;" d="M134.238,222.109c0,0.475-0.385,0.859-0.86,0.859h-17.917c-0.475,0-0.859-0.384-0.859-0.859l0,0
					c0-0.474,0.385-0.859,0.859-0.859h17.917C133.852,221.25,134.238,221.635,134.238,222.109L134.238,222.109z"/>
					<g>
						<path style="fill:#47494B;" d="M115.461,222.484h17.917c0.39,0,0.716-0.261,0.821-0.617c-0.105-0.355-0.431-0.617-0.821-0.617
						h-17.917c-0.39,0-0.715,0.261-0.821,0.617C114.746,222.223,115.071,222.484,115.461,222.484z"/>
					</g>
				</g>
			</g>
			<g>
				<g>
					<path style="fill:#8A8C8E;" d="M164.053,224.931c0,0.475-0.385,0.859-0.86,0.859h-17.917c-0.475,0-0.86-0.384-0.86-0.859l0,0
					c0-0.475,0.385-0.859,0.86-0.859h17.917C163.667,224.072,164.053,224.456,164.053,224.931L164.053,224.931z"/>
					<g>
						<path style="fill:#47494B;" d="M145.276,225.306h17.917c0.39,0,0.715-0.261,0.821-0.617c-0.105-0.355-0.431-0.617-0.821-0.617
						h-17.917c-0.39,0-0.716,0.261-0.821,0.617C144.56,225.044,144.886,225.306,145.276,225.306z"/>
					</g>
				</g>
				<g>
					<path style="fill:#8A8C8E;" d="M164.053,227.752c0,0.475-0.385,0.859-0.86,0.859h-17.917c-0.475,0-0.86-0.384-0.86-0.859l0,0
					c0-0.475,0.385-0.86,0.86-0.86h17.917C163.667,226.892,164.053,227.277,164.053,227.752L164.053,227.752z"/>
					<g>
						<path style="fill:#47494B;" d="M145.276,228.126h17.917c0.39,0,0.715-0.261,0.821-0.617c-0.105-0.355-0.431-0.617-0.821-0.617
						h-17.917c-0.39,0-0.716,0.262-0.821,0.617C144.56,227.865,144.886,228.126,145.276,228.126z"/>
					</g>
				</g>
				<g>
					<path style="fill:#8A8C8E;" d="M164.053,219.289c0,0.475-0.385,0.86-0.86,0.86h-17.917c-0.475,0-0.86-0.385-0.86-0.86l0,0
					c0-0.475,0.385-0.859,0.86-0.859h17.917C163.667,218.43,164.053,218.813,164.053,219.289L164.053,219.289z"/>
					<g>
						<path style="fill:#47494B;" d="M145.276,219.663h17.917c0.39,0,0.715-0.261,0.821-0.617c-0.105-0.355-0.431-0.616-0.821-0.616
						h-17.917c-0.39,0-0.716,0.261-0.821,0.616C144.56,219.401,144.886,219.663,145.276,219.663z"/>
					</g>
				</g>
				<g>
					<path style="fill:#8A8C8E;" d="M164.053,222.109c0,0.475-0.385,0.859-0.86,0.859h-17.917c-0.475,0-0.86-0.384-0.86-0.859l0,0
					c0-0.474,0.385-0.859,0.86-0.859h17.917C163.667,221.25,164.053,221.635,164.053,222.109L164.053,222.109z"/>
					<g>
						<path style="fill:#47494B;" d="M145.276,222.484h17.917c0.39,0,0.715-0.261,0.821-0.617c-0.105-0.355-0.431-0.617-0.821-0.617
						h-17.917c-0.39,0-0.716,0.261-0.821,0.617C144.56,222.223,144.886,222.484,145.276,222.484z"/>
					</g>
				</g>
			</g>
			<g>
				<g>
					<path style="fill:#8A8C8E;" d="M223.682,224.931c0,0.475-0.385,0.859-0.86,0.859h-17.917c-0.474,0-0.859-0.384-0.859-0.859l0,0
					c0-0.475,0.385-0.859,0.859-0.859h17.917C223.297,224.072,223.682,224.456,223.682,224.931L223.682,224.931z"/>
					<g>
						<path style="fill:#47494B;" d="M204.904,225.306h17.917c0.39,0,0.716-0.261,0.821-0.617c-0.105-0.355-0.431-0.617-0.821-0.617
						h-17.917c-0.389,0-0.715,0.261-0.82,0.617C204.189,225.044,204.515,225.306,204.904,225.306z"/>
					</g>
				</g>
				<g>
					<path style="fill:#8A8C8E;" d="M223.682,227.752c0,0.475-0.385,0.859-0.86,0.859h-17.917c-0.474,0-0.859-0.384-0.859-0.859l0,0
					c0-0.475,0.385-0.86,0.859-0.86h17.917C223.297,226.892,223.682,227.277,223.682,227.752L223.682,227.752z"/>
					<g>
						<path style="fill:#47494B;" d="M204.904,228.126h17.917c0.39,0,0.716-0.261,0.821-0.617c-0.105-0.355-0.431-0.617-0.821-0.617
						h-17.917c-0.389,0-0.715,0.262-0.82,0.617C204.189,227.865,204.515,228.126,204.904,228.126z"/>
					</g>
				</g>
				<g>
					<path style="fill:#8A8C8E;" d="M223.682,219.289c0,0.475-0.385,0.86-0.86,0.86h-17.917c-0.474,0-0.859-0.385-0.859-0.86l0,0
					c0-0.475,0.385-0.859,0.859-0.859h17.917C223.297,218.43,223.682,218.813,223.682,219.289L223.682,219.289z"/>
					<g>
						<path style="fill:#47494B;" d="M204.904,219.663h17.917c0.39,0,0.716-0.261,0.821-0.617c-0.105-0.355-0.431-0.616-0.821-0.616
						h-17.917c-0.389,0-0.715,0.261-0.82,0.616C204.189,219.401,204.515,219.663,204.904,219.663z"/>
					</g>
				</g>
				<g>
					<path style="fill:#8A8C8E;" d="M223.682,222.109c0,0.475-0.385,0.859-0.86,0.859h-17.917c-0.474,0-0.859-0.384-0.859-0.859l0,0
					c0-0.474,0.385-0.859,0.859-0.859h17.917C223.297,221.25,223.682,221.635,223.682,222.109L223.682,222.109z"/>
					<g>
						<path style="fill:#47494B;" d="M204.904,222.484h17.917c0.39,0,0.716-0.261,0.821-0.617c-0.105-0.355-0.431-0.617-0.821-0.617
						h-17.917c-0.389,0-0.715,0.261-0.82,0.617C204.189,222.223,204.515,222.484,204.904,222.484z"/>
					</g>
				</g>
			</g>
			<g>
				<g>
					<path style="fill:#8A8C8E;" d="M193.867,224.931c0,0.475-0.385,0.859-0.859,0.859H175.09c-0.474,0-0.859-0.384-0.859-0.859l0,0
					c0-0.475,0.385-0.859,0.859-0.859h17.918C193.482,224.072,193.867,224.456,193.867,224.931L193.867,224.931z"/>
					<g>
						<path style="fill:#47494B;" d="M175.09,225.306h17.918c0.389,0,0.715-0.261,0.82-0.617c-0.105-0.355-0.431-0.617-0.82-0.617
						H175.09c-0.39,0-0.714,0.261-0.82,0.617C174.375,225.044,174.7,225.306,175.09,225.306z"/>
					</g>
				</g>
				<g>
					<path style="fill:#8A8C8E;" d="M193.867,227.752c0,0.475-0.385,0.859-0.859,0.859H175.09c-0.474,0-0.859-0.384-0.859-0.859l0,0
					c0-0.475,0.385-0.86,0.859-0.86h17.918C193.482,226.892,193.867,227.277,193.867,227.752L193.867,227.752z"/>
					<g>
						<path style="fill:#47494B;" d="M175.09,228.126h17.918c0.389,0,0.715-0.261,0.82-0.617c-0.105-0.355-0.431-0.617-0.82-0.617
						H175.09c-0.39,0-0.714,0.262-0.82,0.617C174.375,227.865,174.7,228.126,175.09,228.126z"/>
					</g>
				</g>
				<g>
					<path style="fill:#8A8C8E;" d="M193.867,219.289c0,0.475-0.385,0.86-0.859,0.86H175.09c-0.474,0-0.859-0.385-0.859-0.86l0,0
					c0-0.475,0.385-0.859,0.859-0.859h17.918C193.482,218.43,193.867,218.813,193.867,219.289L193.867,219.289z"/>
					<g>
						<path style="fill:#47494B;" d="M175.09,219.663h17.918c0.389,0,0.715-0.261,0.82-0.617c-0.105-0.355-0.431-0.616-0.82-0.616
						H175.09c-0.39,0-0.714,0.261-0.82,0.616C174.375,219.401,174.7,219.663,175.09,219.663z"/>
					</g>
				</g>
				<g>
					<path style="fill:#8A8C8E;" d="M193.867,222.109c0,0.475-0.385,0.859-0.859,0.859H175.09c-0.474,0-0.859-0.384-0.859-0.859l0,0
					c0-0.474,0.385-0.859,0.859-0.859h17.918C193.482,221.25,193.867,221.635,193.867,222.109L193.867,222.109z"/>
					<g>
						<path style="fill:#47494B;" d="M175.09,222.484h17.918c0.389,0,0.715-0.261,0.82-0.617c-0.105-0.355-0.431-0.617-0.82-0.617
						H175.09c-0.39,0-0.714,0.261-0.82,0.617C174.375,222.223,174.7,222.484,175.09,222.484z"/>
					</g>
				</g>
			</g>
		</g>
	</g>
</svg>
